# xmcd CD database file generated by Grip 3.0.5
# 
# Track frame offsets:
#       180
#       17158
#       36298
#       49803
#       66441
#       80997
#       93517
#       126505
#       137750
#       155164
#       164384
#       176306
#       198282
#       213675
#       229697
# 
# Disc length: 3368 seconds
# 
# Revision: 1
# Processed by: cddbd v1.4PL0 Copyright (c) Steve Scherf et al.
# Submitted via: Grip 3.0.5
# 
DISCID=df0d260f
DTITLE=Don Promillo - Los Kotelettos
DYEAR=1996
DGENRE=Blues
TTITLE0=Woke Up This Morning
TTITLE1=Better Watch Yourself
TTITLE2=Willin'
TTITLE3=Good Morning Little Schoolgirl
TTITLE4=Better Day
TTITLE5='Dat Crawfish
TTITLE6=Bring It On Home
TTITLE7=Don't Know Where I'm Going
TTITLE8=All I Want
TTITLE9=Fresh From The Wood
TTITLE10=Springtime Rag
TTITLE11=Lucille
TTITLE12=Mississippi Kid
TTITLE13=Glory, Glory
TTITLE14=Do Nothing
EXTD=
EXTT0=
EXTT1=
EXTT2=
EXTT3=
EXTT4=
EXTT5=
EXTT6=
EXTT7=
EXTT8=
EXTT9=
EXTT10=
EXTT11=
EXTT12=
EXTT13=
EXTT14=
PLAYORDER=
